<?xml version="1.0" encoding="UTF-8" standalone="no"?>
<!DOCTYPE svg PUBLIC "-//W3C//DTD SVG 1.0//EN" "http://www.w3.org/TR/2001/PR-SVG-20010719/DTD/svg10.dtd">
<svg width="42cm" height="73cm" viewBox="-56 -1 834 1457" xmlns="http://www.w3.org/2000/svg" xmlns:xlink="http://www.w3.org/1999/xlink">
  <g>
    <rect style="fill: #ffffff" x="0" y="1" width="90.9" height="38"/>
    <rect style="fill: none; fill-opacity:0; stroke-width: 2; stroke: #000000" x="0" y="1" width="90.9" height="38"/>
    <text style="fill: #000000;text-anchor:middle;font-size:12.8;font-family:sanserif;font-style:normal;font-weight:normal" x="45.45" y="23.9">
      <tspan x="45.45" y="23.9">framework</tspan>
    </text>
  </g>
  <g>
    <polygon style="fill: #ffffff" points="43.5451,74.0808 125.86,121.338 43.5451,168.595 -38.7694,121.338 "/>
    <polygon style="fill: none; fill-opacity:0; stroke-width: 2; stroke: #000000" points="43.5451,74.0808 125.86,121.338 43.5451,168.595 -38.7694,121.338 "/>
    <text style="fill: #000000;text-anchor:middle;font-size:12.8;font-family:sanserif;font-style:normal;font-weight:normal" x="43.5451" y="125.238">
      <tspan x="43.5451" y="125.238">doConvolution</tspan>
    </text>
  </g>
  <g>
    <line style="fill: none; fill-opacity:0; stroke-width: 2; stroke: #000000" x1="45.074" y1="40.0028" x2="44.6252" y2="63.8786"/>
    <polygon style="fill: #000000" points="44.4842,71.3773 39.6731,61.2851 44.6252,63.8786 49.6713,61.473 "/>
    <polygon style="fill: none; fill-opacity:0; stroke-width: 2; stroke: #000000" points="44.4842,71.3773 39.6731,61.2851 44.6252,63.8786 49.6713,61.473 "/>
  </g>
  <text style="fill: #000000;text-anchor:start;font-size:12.8;font-family:sanserif;font-style:normal;font-weight:normal" x="131.8" y="123">
    <tspan x="131.8" y="123"></tspan>
  </text>
  <g>
    <rect style="fill: #ffffff" x="178.8" y="100.75" width="76.75" height="38"/>
    <rect style="fill: none; fill-opacity:0; stroke-width: 2; stroke: #000000" x="178.8" y="100.75" width="76.75" height="38"/>
    <text style="fill: #000000;text-anchor:middle;font-size:12.8;font-family:sanserif;font-style:normal;font-weight:normal" x="217.175" y="123.65">
      <tspan x="217.175" y="123.65">wavread</tspan>
    </text>
  </g>
  <g>
    <rect style="fill: #ffffff" x="-11.175" y="216.75" width="111.95" height="38"/>
    <rect style="fill: none; fill-opacity:0; stroke-width: 2; stroke: #000000" x="-11.175" y="216.75" width="111.95" height="38"/>
    <text style="fill: #000000;text-anchor:middle;font-size:12.8;font-family:sanserif;font-style:normal;font-weight:normal" x="44.8" y="239.65">
      <tspan x="44.8" y="239.65">readDatabase</tspan>
    </text>
  </g>
  <g>
    <line style="fill: none; fill-opacity:0; stroke-width: 2; stroke: #000000" x1="43.545" y1="168.594" x2="44.2449" y2="206.046"/>
    <polygon style="fill: #000000" points="44.385,213.545 39.1991,203.64 44.2449,206.046 49.1973,203.453 "/>
    <polygon style="fill: none; fill-opacity:0; stroke-width: 2; stroke: #000000" points="44.385,213.545 39.1991,203.64 44.2449,206.046 49.1973,203.453 "/>
  </g>
  <g>
    <line style="fill: none; fill-opacity:0; stroke-width: 2; stroke: #000000" x1="125.86" y1="121.338" x2="169.068" y2="120.042"/>
    <polygon style="fill: #000000" points="176.565,119.817 166.719,125.115 169.068,120.042 166.42,115.119 "/>
    <polygon style="fill: none; fill-opacity:0; stroke-width: 2; stroke: #000000" points="176.565,119.817 166.719,125.115 169.068,120.042 166.42,115.119 "/>
  </g>
  <g>
    <polygon style="fill: #ffffff" points="44.8,300.244 143.813,349.751 44.8,399.257 -54.2132,349.751 "/>
    <polygon style="fill: none; fill-opacity:0; stroke-width: 2; stroke: #000000" points="44.8,300.244 143.813,349.751 44.8,399.257 -54.2132,349.751 "/>
    <text style="fill: #000000;text-anchor:middle;font-size:12.8;font-family:sanserif;font-style:normal;font-weight:normal" x="44.8" y="345.651">
      <tspan x="44.8" y="345.651">doWeight</tspan>
      <tspan x="44.8" y="361.651">MatSynthesis</tspan>
    </text>
  </g>
  <g>
    <line style="fill: none; fill-opacity:0; stroke-width: 2; stroke: #000000" x1="44.8" y1="255.747" x2="44.8" y2="289.508"/>
    <polygon style="fill: #000000" points="44.8,297.008 39.8,287.008 44.8,289.508 49.8,287.008 "/>
    <polygon style="fill: none; fill-opacity:0; stroke-width: 2; stroke: #000000" points="44.8,297.008 39.8,287.008 44.8,289.508 49.8,287.008 "/>
  </g>
  <g>
    <rect style="fill: #ffffff" x="171.8" y="332.75" width="126" height="38"/>
    <rect style="fill: none; fill-opacity:0; stroke-width: 2; stroke: #000000" x="171.8" y="332.75" width="126" height="38"/>
    <text style="fill: #000000;text-anchor:middle;font-size:12.8;font-family:sanserif;font-style:normal;font-weight:normal" x="234.8" y="355.65">
      <tspan x="234.8" y="355.65">weightMatSynth</tspan>
    </text>
  </g>
  <g>
    <line style="fill: none; fill-opacity:0; stroke-width: 2; stroke: #000000" x1="143.813" y1="349.75" x2="161.069" y2="350.129"/>
    <polygon style="fill: #000000" points="168.567,350.294 158.46,355.073 161.069,350.129 158.679,345.076 "/>
    <polygon style="fill: none; fill-opacity:0; stroke-width: 2; stroke: #000000" points="168.567,350.294 158.46,355.073 161.069,350.129 158.679,345.076 "/>
  </g>
  <text style="fill: #000000;text-anchor:start;font-size:12.8;font-family:sanserif;font-style:normal;font-weight:normal" x="150.8" y="108.25">
    <tspan x="150.8" y="108.25">no</tspan>
  </text>
  <text style="fill: #000000;text-anchor:start;font-size:12.8;font-family:sanserif;font-style:normal;font-weight:normal" x="62.8" y="183.25">
    <tspan x="62.8" y="183.25">yes</tspan>
  </text>
  <g>
    <path style="fill: none; fill-opacity:0; stroke-width: 2; stroke: #000000" d="M 94.5304,319.663 A 313.367,313.367 0 0 0 213.201,139.47"/>
    <polyline style="fill: none; fill-opacity:0; stroke-width: 2; stroke: #000000" points="97.9399,311.099 92.733,320.993 103.772,319.222 "/>
  </g>
  <g>
    <polygon style="fill: #ffffff" points="47.7065,727.456 109.058,756.01 47.7065,784.564 -13.6454,756.01 "/>
    <polygon style="fill: none; fill-opacity:0; stroke-width: 2; stroke: #ff0000" points="47.7065,727.456 109.058,756.01 47.7065,784.564 -13.6454,756.01 "/>
    <text style="fill: #000000;text-anchor:middle;font-size:12.8;font-family:sanserif;font-style:normal;font-weight:normal" x="47.7065" y="759.91">
      <tspan x="47.7065" y="759.91">doICA</tspan>
    </text>
  </g>
  <g>
    <line style="fill: none; fill-opacity:0; stroke-width: 2; stroke: #000000" x1="44.8" y1="399.256" x2="44.2171" y2="430.04"/>
    <polyline style="fill: none; fill-opacity:0; stroke-width: 2; stroke: #000000" points="39.365,422.183 44.1748,432.276 49.3632,422.373 "/>
  </g>
  <g>
    <polygon style="fill: #ffffff" points="432.919,307.006 505.618,352.903 432.919,398.799 360.22,352.903 "/>
    <polygon style="fill: none; fill-opacity:0; stroke-width: 2; stroke: #000000" points="432.919,307.006 505.618,352.903 432.919,398.799 360.22,352.903 "/>
    <text style="fill: #000000;text-anchor:middle;font-size:12.8;font-family:sanserif;font-style:normal;font-weight:normal" x="432.919" y="348.803">
      <tspan x="432.919" y="348.803">doBeam</tspan>
      <tspan x="432.919" y="364.803">pattern</tspan>
    </text>
  </g>
  <g>
    <path style="fill: none; fill-opacity:0; stroke-width: 2; stroke: #000000" d="M 357.555,350.747 A 2694.29,2694.29 0 0 0 298.807,350.529"/>
    <polyline style="fill: none; fill-opacity:0; stroke-width: 2; stroke: #000000" points="349.711,355.617 359.791,350.78 349.873,345.618 "/>
  </g>
  <text style="fill: #000000;text-anchor:start;font-size:12.8;font-family:sanserif;font-style:normal;font-weight:normal" x="137.602" y="330.2">
    <tspan x="137.602" y="330.2">yes</tspan>
  </text>
  <text style="fill: #000000;text-anchor:start;font-size:12.8;font-family:sanserif;font-style:normal;font-weight:normal" x="497.402" y="331.5">
    <tspan x="497.402" y="331.5">yes</tspan>
  </text>
  <text style="fill: #000000;text-anchor:start;font-size:12.8;font-family:sanserif;font-style:normal;font-weight:normal" x="56.602" y="421.2">
    <tspan x="56.602" y="421.2">no</tspan>
  </text>
  <text style="fill: #000000;text-anchor:start;font-size:12.8;font-family:sanserif;font-style:normal;font-weight:normal" x="393.802" y="400">
    <tspan x="393.802" y="400">no</tspan>
  </text>
  <g>
    <rect style="fill: #ffffff" x="515.102" y="387" width="105.4" height="38"/>
    <rect style="fill: none; fill-opacity:0; stroke-width: 2; stroke: #000000" x="515.102" y="387" width="105.4" height="38"/>
    <text style="fill: #000000;text-anchor:middle;font-size:12.8;font-family:sanserif;font-style:normal;font-weight:normal" x="567.802" y="409.9">
      <tspan x="567.802" y="409.9">beampattern</tspan>
    </text>
  </g>
  <g>
    <line style="fill: none; fill-opacity:0; stroke-width: 2; stroke: #000000" x1="505.618" y1="352.904" x2="541.021" y2="383.133"/>
    <polyline style="fill: none; fill-opacity:0; stroke-width: 2; stroke: #000000" points="531.87,381.894 542.722,384.585 538.364,374.289 "/>
  </g>
  <g>
    <path style="fill: none; fill-opacity:0; stroke-width: 2; stroke: #000000" d="M 109.029,450.309 A 2103.19,2103.19 0 0 0 432.92,398.8"/>
    <polyline style="fill: none; fill-opacity:0; stroke-width: 2; stroke: #000000" points="116.383,444.728 106.8,450.487 117.157,454.698 "/>
  </g>
  <g>
    <path style="fill: none; fill-opacity:0; stroke-width: 2; stroke: #000000" d="M 109.231,456.08 A 1985.93,1985.93 0 0 0 514.112,417.52"/>
    <polyline style="fill: none; fill-opacity:0; stroke-width: 2; stroke: #000000" points="117.044,451.161 106.995,456.062 116.945,461.161 "/>
  </g>
  <text style="fill: #000000;text-anchor:start;font-size:12.8;font-family:sanserif;font-style:normal;font-weight:normal" x="116.304" y="748.2">
    <tspan x="116.304" y="748.2">yes</tspan>
  </text>
  <text style="fill: #000000;text-anchor:start;font-size:12.8;font-family:sanserif;font-style:normal;font-weight:normal" x="59.304" y="806.2">
    <tspan x="59.304" y="806.2">no</tspan>
  </text>
  <g>
    <rect style="fill: #ffffff" x="-16.246" y="435.5" width="120" height="38"/>
    <rect style="fill: none; fill-opacity:0; stroke-width: 2; stroke: #000000" x="-16.246" y="435.5" width="120" height="38"/>
    <text style="fill: #000000;text-anchor:middle;font-size:12.8;font-family:sanserif;font-style:normal;font-weight:normal" x="43.754" y="458.4">
      <tspan x="43.754" y="458.4">toFrequDomain</tspan>
    </text>
  </g>
  <g>
    <line style="fill: none; fill-opacity:0; stroke-width: 2; stroke: #000000" x1="44.3005" y1="474.488" x2="45.7599" y2="527.864"/>
    <polyline style="fill: none; fill-opacity:0; stroke-width: 2; stroke: #000000" points="40.5496,520.24 45.821,530.099 50.5458,519.966 "/>
  </g>
  <g>
    <rect style="fill: #ffffff" x="174.079" y="739.5" width="123.35" height="38"/>
    <rect style="fill: none; fill-opacity:0; stroke-width: 2; stroke: #000000" x="174.079" y="739.5" width="123.35" height="38"/>
    <text style="fill: #000000;text-anchor:middle;font-size:12.8;font-family:sanserif;font-style:normal;font-weight:normal" x="235.754" y="762.4">
      <tspan x="235.754" y="762.4">FastICAcomplex</tspan>
    </text>
  </g>
  <g>
    <line style="fill: none; fill-opacity:0; stroke-width: 2; stroke: #000000" x1="109.058" y1="756.01" x2="168.608" y2="757.18"/>
    <polyline style="fill: none; fill-opacity:0; stroke-width: 2; stroke: #000000" points="160.747,762.027 170.843,757.224 160.944,752.029 "/>
  </g>
  <g>
    <polygon style="fill: #ffffff" points="449.445,717.852 539.543,762.021 449.445,806.189 359.348,762.021 "/>
    <polygon style="fill: none; fill-opacity:0; stroke-width: 2; stroke: #ff0000" points="449.445,717.852 539.543,762.021 449.445,806.189 359.348,762.021 "/>
    <text style="fill: #000000;text-anchor:middle;font-size:12.8;font-family:sanserif;font-style:normal;font-weight:normal" x="449.445" y="757.921">
      <tspan x="449.445" y="757.921">doICA</tspan>
      <tspan x="449.445" y="773.921">SourceLoc</tspan>
    </text>
  </g>
  <g>
    <line style="fill: none; fill-opacity:0; stroke-width: 2; stroke: #000000" x1="47.7064" y1="784.564" x2="46.807" y2="1200.04"/>
    <polyline style="fill: none; fill-opacity:0; stroke-width: 2; stroke: #000000" points="41.8238,1192.26 46.8021,1202.27 51.8238,1192.28 "/>
  </g>
  <text style="fill: #000000;text-anchor:start;font-size:12.8;font-family:sanserif;font-style:normal;font-weight:normal" x="541.254" y="749.4">
    <tspan x="541.254" y="749.4">yes</tspan>
  </text>
  <text style="fill: #000000;text-anchor:start;font-size:12.8;font-family:sanserif;font-style:normal;font-weight:normal" x="465.254" y="821.4">
    <tspan x="465.254" y="821.4">no</tspan>
  </text>
  <g>
    <rect style="fill: #ffffff" x="588.154" y="743.5" width="73.2" height="38"/>
    <rect style="fill: none; fill-opacity:0; stroke-width: 2; stroke: #000000" x="588.154" y="743.5" width="73.2" height="38"/>
    <text style="fill: #000000;text-anchor:middle;font-size:12.8;font-family:sanserif;font-style:normal;font-weight:normal" x="624.754" y="766.4">
      <tspan x="624.754" y="766.4">abpOrig</tspan>
    </text>
  </g>
  <g>
    <rect style="fill: #ffffff" x="695.78" y="744.5" width="81.95" height="38"/>
    <rect style="fill: none; fill-opacity:0; stroke-width: 2; stroke: #000000" x="695.78" y="744.5" width="81.95" height="38"/>
    <text style="fill: #000000;text-anchor:middle;font-size:12.8;font-family:sanserif;font-style:normal;font-weight:normal" x="736.755" y="767.4">
      <tspan x="736.755" y="767.4">abpFeher</tspan>
    </text>
  </g>
  <g>
    <line style="fill: none; fill-opacity:0; stroke-width: 2; stroke: #000000" x1="539.542" y1="762.022" x2="583.682" y2="762.456"/>
    <polyline style="fill: none; fill-opacity:0; stroke-width: 2; stroke: #000000" points="575.869,767.379 585.918,762.478 575.968,757.38 "/>
  </g>
  <g>
    <line style="fill: none; fill-opacity:0; stroke-width: 2; stroke: #000000" x1="661.354" y1="762.5" x2="691.31" y2="763.37"/>
    <polyline style="fill: none; fill-opacity:0; stroke-width: 2; stroke: #000000" points="683.404,768.143 693.545,763.435 683.694,758.147 "/>
  </g>
  <g>
    <rect style="fill: #ffffff" x="416.478" y="861.5" width="66.55" height="38"/>
    <rect style="fill: none; fill-opacity:0; stroke-width: 2; stroke: #ff0000" x="416.478" y="861.5" width="66.55" height="38"/>
    <text style="fill: #000000;text-anchor:middle;font-size:12.8;font-family:sanserif;font-style:normal;font-weight:normal" x="449.753" y="884.4">
      <tspan x="449.753" y="884.4">sorting</tspan>
    </text>
  </g>
  <g>
    <line style="fill: none; fill-opacity:0; stroke-width: 2; stroke: #000000" x1="449.446" y1="806.19" x2="449.652" y2="856.026"/>
    <polyline style="fill: none; fill-opacity:0; stroke-width: 2; stroke: #000000" points="444.62,848.283 449.661,858.262 454.62,848.242 "/>
  </g>
  <g>
    <line style="fill: none; fill-opacity:0; stroke-width: 2; stroke: #000000" x1="694.775" y1="780.614" x2="488.167" y2="864.84"/>
    <polyline style="fill: none; fill-opacity:0; stroke-width: 2; stroke: #000000" points="493.469,857.279 486.096,865.684 497.244,866.539 "/>
  </g>
  <g>
    <path style="fill: none; fill-opacity:0; stroke-width: 2; stroke: #000000" d="M 376.88,749.834 A 473.332,473.332 0 0 0 298.43,749.393"/>
    <polyline style="fill: none; fill-opacity:0; stroke-width: 2; stroke: #000000" points="368.666,754.029 379.107,750.032 369.645,744.077 "/>
  </g>
  <g>
    <line style="fill: none; fill-opacity:0; stroke-width: 2; stroke: #000000" x1="432.92" y1="398.8" x2="109.184" y2="445.135"/>
    <polyline style="fill: none; fill-opacity:0; stroke-width: 2; stroke: #000000" points="116.161,439.086 106.971,445.452 117.578,448.985 "/>
  </g>
  <g>
    <rect style="fill: #ffffff" x="410.354" y="921.5" width="78.8" height="38"/>
    <rect style="fill: none; fill-opacity:0; stroke-width: 2; stroke: #000000" x="410.354" y="921.5" width="78.8" height="38"/>
    <text style="fill: #000000;text-anchor:middle;font-size:12.8;font-family:sanserif;font-style:normal;font-weight:normal" x="449.754" y="944.4">
      <tspan x="449.754" y="944.4">applyICA</tspan>
    </text>
  </g>
  <g>
    <line style="fill: none; fill-opacity:0; stroke-width: 2; stroke: #000000" x1="449.753" y1="900.495" x2="449.754" y2="916.033"/>
    <polyline style="fill: none; fill-opacity:0; stroke-width: 2; stroke: #000000" points="444.753,908.269 449.754,918.269 454.753,908.269 "/>
  </g>
  <g>
    <rect style="fill: #ffffff" x="395.054" y="994.5" width="105.4" height="54"/>
    <rect style="fill: none; fill-opacity:0; stroke-width: 2; stroke: #000000" x="395.054" y="994.5" width="105.4" height="54"/>
    <text style="fill: #000000;text-anchor:middle;font-size:12.8;font-family:sanserif;font-style:normal;font-weight:normal" x="447.754" y="1017.4">
      <tspan x="447.754" y="1017.4">beampattern</tspan>
      <tspan x="447.754" y="1033.4">(unsort)</tspan>
    </text>
  </g>
  <g>
    <rect style="fill: #ffffff" x="396.254" y="1072.5" width="105.4" height="54"/>
    <rect style="fill: none; fill-opacity:0; stroke-width: 2; stroke: #000000" x="396.254" y="1072.5" width="105.4" height="54"/>
    <text style="fill: #000000;text-anchor:middle;font-size:12.8;font-family:sanserif;font-style:normal;font-weight:normal" x="448.954" y="1095.4">
      <tspan x="448.954" y="1095.4">beampattern</tspan>
      <tspan x="448.954" y="1111.4">(sort)</tspan>
    </text>
  </g>
  <g>
    <line style="fill: none; fill-opacity:0; stroke-width: 2; stroke: #000000" x1="449.261" y1="960.473" x2="448.554" y2="989.106"/>
    <polyline style="fill: none; fill-opacity:0; stroke-width: 2; stroke: #000000" points="443.747,981.221 448.499,991.342 453.744,981.468 "/>
  </g>
  <g>
    <line style="fill: none; fill-opacity:0; stroke-width: 2; stroke: #000000" x1="448.185" y1="1049.5" x2="448.454" y2="1067.03"/>
    <polyline style="fill: none; fill-opacity:0; stroke-width: 2; stroke: #000000" points="443.336,1059.34 448.489,1069.26 453.334,1059.19 "/>
  </g>
  <g>
    <rect style="fill: #ffffff" x="-1.521" y="1269.5" width="90.55" height="38"/>
    <rect style="fill: none; fill-opacity:0; stroke-width: 2; stroke: #000000" x="-1.521" y="1269.5" width="90.55" height="38"/>
    <text style="fill: #000000;text-anchor:middle;font-size:12.8;font-family:sanserif;font-style:normal;font-weight:normal" x="43.754" y="1292.4">
      <tspan x="43.754" y="1292.4">writeAudio</tspan>
    </text>
  </g>
  <g>
    <line style="fill: none; fill-opacity:0; stroke-width: 2; stroke: #000000" x1="395.291" y1="1116.18" x2="109.548" y2="1204.98"/>
    <polyline style="fill: none; fill-opacity:0; stroke-width: 2; stroke: #000000" points="115.478,1197.91 107.413,1205.65 118.446,1207.45 "/>
  </g>
  <g>
    <polygon style="fill: #ffffff" points="45.3974,1338.63 137.531,1397.29 45.3974,1455.94 -46.7362,1397.29 "/>
    <polygon style="fill: none; fill-opacity:0; stroke-width: 2; stroke: #000000" points="45.3974,1338.63 137.531,1397.29 45.3974,1455.94 -46.7362,1397.29 "/>
    <text style="fill: #000000;text-anchor:middle;font-size:12.8;font-family:sanserif;font-style:normal;font-weight:normal" x="45.3974" y="1393.19">
      <tspan x="45.3974" y="1393.19">doConvolution</tspan>
      <tspan x="45.3974" y="1409.19">&amp; doEval</tspan>
    </text>
  </g>
  <g>
    <path style="fill: none; fill-opacity:0; stroke-width: 2; stroke: #000000" d="M 45.5717,1333.34 A 1258.56,1258.56 0 0 0 44.7618,1308.48"/>
    <polyline style="fill: none; fill-opacity:0; stroke-width: 2; stroke: #000000" points="40.432,1325.68 45.6224,1335.58 50.4302,1325.48 "/>
  </g>
  <text style="fill: #000000;text-anchor:start;font-size:12.8;font-family:sanserif;font-style:normal;font-weight:normal" x="202.754" y="982.5">
    <tspan x="202.754" y="982.5"></tspan>
  </text>
  <g>
    <rect style="fill: #ffffff" x="-11.146" y="1205.5" width="115.8" height="38"/>
    <rect style="fill: none; fill-opacity:0; stroke-width: 2; stroke: #000000" x="-11.146" y="1205.5" width="115.8" height="38"/>
    <text style="fill: #000000;text-anchor:middle;font-size:12.8;font-family:sanserif;font-style:normal;font-weight:normal" x="46.754" y="1228.4">
      <tspan x="46.754" y="1228.4">toTimeDomain</tspan>
    </text>
  </g>
  <g>
    <line style="fill: none; fill-opacity:0; stroke-width: 2; stroke: #000000" x1="45.8161" y1="1244.51" x2="44.9013" y2="1264.02"/>
    <polyline style="fill: none; fill-opacity:0; stroke-width: 2; stroke: #000000" points="40.2703,1256.04 44.7966,1266.26 50.2593,1256.5 "/>
  </g>
  <g>
    <polygon style="fill: #ffffff" points="47.2165,532.606 136.019,581.138 47.2165,629.67 -41.5862,581.138 "/>
    <polygon style="fill: none; fill-opacity:0; stroke-width: 2; stroke: #ff0000" points="47.2165,532.606 136.019,581.138 47.2165,629.67 -41.5862,581.138 "/>
    <text style="fill: #000000;text-anchor:middle;font-size:12.8;font-family:sanserif;font-style:normal;font-weight:normal" x="47.2165" y="585.038">
      <tspan x="47.2165" y="585.038">doBeamforming</tspan>
    </text>
  </g>
  <text style="fill: #000000;text-anchor:start;font-size:12.8;font-family:sanserif;font-style:normal;font-weight:normal" x="125.721" y="567.182">
    <tspan x="125.721" y="567.182">yes</tspan>
  </text>
  <text style="fill: #000000;text-anchor:start;font-size:12.8;font-family:sanserif;font-style:normal;font-weight:normal" x="59.7212" y="649.182">
    <tspan x="59.7212" y="649.182">no</tspan>
  </text>
  <g>
    <line style="fill: none; fill-opacity:0; stroke-width: 2; stroke: #000000" x1="136.019" y1="581.138" x2="158.683" y2="582.162"/>
    <polyline style="fill: none; fill-opacity:0; stroke-width: 2; stroke: #000000" points="150.701,586.807 160.917,582.263 151.153,576.817 "/>
  </g>
  <g>
    <line style="fill: none; fill-opacity:0; stroke-width: 2; stroke: #000000" x1="47.2166" y1="629.67" x2="47.5747" y2="722.035"/>
    <polyline style="fill: none; fill-opacity:0; stroke-width: 2; stroke: #000000" points="42.5447,714.29 47.5834,724.271 52.5446,714.252 "/>
  </g>
  <g>
    <rect style="fill: #ffffff" x="164.154" y="566.5" width="136.75" height="38"/>
    <rect style="fill: none; fill-opacity:0; stroke-width: 2; stroke: #ff0000" x="164.154" y="566.5" width="136.75" height="38"/>
    <text style="fill: #000000;text-anchor:middle;font-size:12.8;font-family:sanserif;font-style:normal;font-weight:normal" x="232.529" y="589.4">
      <tspan x="232.529" y="589.4">beamformProcess</tspan>
    </text>
  </g>
  <g>
    <path style="fill: none; fill-opacity:0; stroke-width: 2; stroke: #000000" d="M 194.372,605.503 A 405.209,405.209 0 0 0 63.8302,729.613"/>
    <polyline style="fill: none; fill-opacity:0; stroke-width: 2; stroke: #000000" points="63.8404,720.365 62.5927,731.475 72.2297,725.807 "/>
  </g>
</svg>
